<?xml version="1.0" encoding="UTF-8" standalone="no"?>
<!-- Created with matplotlib (http://matplotlib.org/) -->

<svg
   xmlns:dc="http://purl.org/dc/elements/1.1/"
   xmlns:cc="http://creativecommons.org/ns#"
   xmlns:rdf="http://www.w3.org/1999/02/22-rdf-syntax-ns#"
   xmlns:svg="http://www.w3.org/2000/svg"
   xmlns="http://www.w3.org/2000/svg"
   xmlns:sodipodi="http://sodipodi.sourceforge.net/DTD/sodipodi-0.dtd"
   xmlns:inkscape="http://www.inkscape.org/namespaces/inkscape"
   height="30"
   version="1.1"
   viewBox="0 0 191.2 24"
   width="239"
   id="svg2"
   inkscape:version="0.48.4 r9939"
   sodipodi:docname="banner-2.svg">
  <metadata
     id="metadata25">
    <rdf:RDF>
      <cc:Work
         rdf:about="">
        <dc:format>image/svg+xml</dc:format>
        <dc:type
           rdf:resource="http://purl.org/dc/dcmitype/StillImage" />
        <dc:title></dc:title>
      </cc:Work>
    </rdf:RDF>
  </metadata>
  <sodipodi:namedview
     pagecolor="#ffffff"
     bordercolor="#666666"
     borderopacity="1"
     objecttolerance="10"
     gridtolerance="10"
     guidetolerance="10"
     inkscape:pageopacity="0"
     inkscape:pageshadow="2"
     inkscape:window-width="1237"
     inkscape:window-height="776"
     id="namedview23"
     showgrid="false"
     inkscape:zoom="4.6493273"
     inkscape:cx="120.49232"
     inkscape:cy="12.952202"
     inkscape:window-x="43"
     inkscape:window-y="24"
     inkscape:window-maximized="1"
     inkscape:current-layer="svg2"
     fit-margin-left="-20"
     fit-margin-top="0"
     fit-margin-right="-20"
     fit-margin-bottom="0"
     borderlayer="true"
     inkscape:showpageshadow="true"
     showborder="true" />
  <defs
     id="defs4"
     style="stroke-linecap:butt;stroke-linejoin:round">
    <style
       type="text/css"
       id="style6">
*{stroke-linecap:butt;stroke-linejoin:round;}
  </style>
  </defs>
  <g
     id="figure_1"
     style="stroke-linecap:butt;stroke-linejoin:round"
     transform="translate(-16,0.96000042)">
    <g
       id="patch_1"
       style="stroke-linecap:butt;stroke-linejoin:round">
      <path
         d="m 0,23.04 223.2,0 L 223.2,0 0,0 z"
         style="fill:none;stroke-linecap:butt;stroke-linejoin:round"
         id="path10"
         inkscape:connector-curvature="0" />
    </g>
    <g
       id="axes_1"
       style="stroke-linecap:butt;stroke-linejoin:round">
      <g
         id="line2d_1"
         style="stroke-linecap:butt;stroke-linejoin:round">
        <path
           clip-path="url(#pd52b26d716)"
           d="M -0.172222,10.0456 0,16.6847 l 0.172222,-6.6391 0.172222,7.0733 0.172223,-2.0943 0.172222,-3.7427 0.172222,4.2047 0.172219,0.2041 0.17223,-2.4982 0.17222,1.3544 0.34444,-4.3653 0.17222,6.9775 0.17223,-3.5063 0.17222,8.5077 L 2.41111,10.93 2.58333,17.599 2.75556,10.0536 3.1,16.2202 3.27222,14.4818 3.44444,14.6875 3.78889,4.9186 3.96111,17.1791 4.13333,12.6758 4.30556,14.2683 4.47778,14.5322 4.65,13.7723 4.82222,16.3178 4.99444,10.745 5.16667,12.023 5.33889,6.7855 5.51111,12.5689 5.68333,10.2151 5.85556,10.3804 6.02778,17.1256 6.2,16.3343 6.37222,10.2738 6.54444,11.7027 6.71667,11.9218 7.06111,16.311 7.23333,12.2206 7.40556,15.0134 7.75,12.7754 7.92222,18.7424 8.26667,10.8862 8.43889,13.6103 8.78333,8.71985 8.95556,6.53035 9.12778,9.998 9.3,7.97867 9.47222,15.5661 9.64444,9.06544 l 0.17223,9.52526 0.17222,-6.0469 0.34441,-0.741 0.1723,-7.64522 0.1722,9.66172 0.1722,3.1898 0.1722,-0.6694 0.1722,-3.6027 0.1723,1.2014 0.1722,-5.99901 0.1722,3.82751 0.1722,-0.6881 0.1723,6.7597 0.1722,-6.2198 0.1722,5.5952 0.3444,-7.30234 0.1723,0.84694 0.1722,1.749 0.1722,-2.1092 0.1722,6.217 0.1723,-3.1625 0.1722,2.3065 0.1722,-3.9539 0.1722,9.0854 0.1722,-7.0594 0.1723,1.5981 0.1722,-3.6454 0.1722,3.6042 0.1722,-5.88312 0.1723,2.51282 0.1722,-1.6113 0.1722,4.8859 0.3444,-4.0477 0.1723,3.1136 0.3444,-5.58741 0.1722,9.47161 0.1723,-4.788 0.3444,4.8573 0.1722,-7.3779 0.3445,5.6107 0.3444,-6.65448 0.1722,1.21618 0.1723,6.2588 0.1722,-1.366 0.1722,-6.98641 0.1722,7.41971 0.1722,-6.73674 0.1723,5.44934 0.1722,1.9106 0.3444,-6.6541 0.1723,1.1111 0.1722,3.1833 0.1722,0.0344 0.1722,-2.3029 0.3445,5.0024 0.1722,-7.60713 0.1722,2.10033 0.1722,0.6206 0.1723,-5.58158 0.1722,8.85588 0.1722,-1.5506 0.3444,2.0254 0.1723,-3.6665 0.1722,1.048 0.1722,7.5349 0.1722,-14.33557 0.3445,11.71847 0.1722,-0.5157 0.1722,-9.44872 0.1722,5.92032 0.1723,-4.5182 0.1722,1.9481 0.1722,6.4402 0.1722,-0.1414 0.1723,-2.8432 0.1722,-5.44382 0.5166,7.92492 0.3445,-6.229 0.1722,1.9372 0.1722,-4.68057 0.5167,5.56647 0.1722,4.7338 0.5167,-15.1894 0.1722,9.584 0.1722,-4.20788 0.1723,8.39458 0.1722,-4.2287 0.3444,3.6558 0.3445,-7.66438 0.1722,1.06258 0.1722,2.6897 0.1722,0.3404 0.3445,-4.20514 0.1722,1.37884 0.1722,4.5682 0.1722,-2.7748 0.1723,1.5525 0.1722,-0.7485 0.1722,-4.09661 0.1722,6.54311 0.1723,0.1285 0.1722,-6.50458 0.3444,4.49188 0.1722,0.4894 0.1723,-1.0291 0.1722,-2.5998 0.1722,2.6877 0.1722,4.958 0.1723,-11.04267 0.1722,2.87727 0.1722,5.569 0.1722,-2.0267 0.1722,1.7905 0.1723,-1.1426 0.1722,1.0662 0.3444,-5.81587 0.1723,-0.14266 0.1722,8.31323 0.1722,1.9761 0.1722,-0.8989 0.1722,0.2505 0.1723,-11.87332 0.1722,1.32791 0.1722,6.70011 0.1722,-6.32757 0.1723,11.24637 0.1722,-9.2467 0.1722,-2.11319 0.1722,-0.5718 0.1722,3.41019 0.1723,-0.7645 0.1722,4.8665 0.1722,-3.1818 0.1722,1.611 0.1723,-1.2733 0.3444,3.6832 0.1722,2.0338 0.1722,-4.9141 0.1723,1.9264 0.1722,-4.6976 0.1722,2.8306 0.1722,-7.12617 0.1723,5.65767 0.1722,0.1972 0.1722,1.3094 0.1722,3.5589 0.1722,-2.5347 0.1723,5.9747 0.1722,-15.19759 0.1722,11.15809 0.1722,-0.6923 0.1723,-0.1211 0.1722,-3.6993 0.1722,2.5786 0.1722,-3.0843 0.1722,3.1332 0.1723,-1.09 0.3444,-5.76111 0.1722,5.91471 0.1723,-2.1104 0.1722,1.7137 0.1722,0.1624 0.6889,5.5961 0.1722,-2.3467 0.1722,1.456 0.3445,-7.179 0.1722,2.426 0.3444,-5.81039 0.1723,9.09039 0.1722,-1.2093 0.1722,1.5892 0.3445,-3.1977 0.1722,-6.01793 0.1722,2.52113 0.1722,-1.4552 0.1722,-5.36125 0.1723,8.01835 0.1722,0.9978 0.1722,0.2832 0.1722,-3.50596 0.3445,5.93866 0.1722,-3.1972 0.1722,2.2128 0.1722,-6.13824 0.3445,10.89604 0.1722,-6.6156 0.1722,-0.3221 0.1723,6.91 0.1722,-8.8365 0.3444,6.1238 0.1722,-7.56284 0.3445,10.94044 0.1722,-6.0156 0.1722,-0.531 0.1723,0.5751 0.1722,-4.72227 0.1722,6.10837 0.1722,-1.6982 0.1722,1.3824 0.1723,-4.6691 0.1722,2.9708 0.1722,-0.6594 0.1722,5.4669 0.1723,-1.9578 0.1722,-5.5081 0.1722,2.3431 0.1722,-2.1858 0.1722,2.1479 0.1723,-5.7713 0.1722,3.0039 0.1722,5.1568 0.1722,-0.5057 0.1723,-7.07943 0.1722,5.40693 0.1722,1.2356 0.1722,-3.6934 0.1722,8.2677 0.1723,-11.36277 0.1722,13.04317 0.1722,-7.0123 0.1722,4.0026 0.5167,-6.671 0.1722,6.0805 0.3445,-10.78301 0.1722,7.91421 0.1722,1.1419 0.1722,-0.8731 0.1723,0.3146 0.1722,1.8222 0.1722,-5.158 0.1722,1.4809 0.1722,-1.8464 0.3445,3.2884 0.1722,-1.406 0.1722,3.8573 0.1723,-8.3885 0.1722,5.1659 0.1722,1.113 0.1722,-1.2198 0.1722,-4.35291 0.3445,10.08731 0.1722,-3.6531 0.1722,1.0848 0.1723,-4.6389 0.1722,6.3873 0.1722,-11.24286 0.1722,2.88706 0.1722,-1.27883 0.1723,1.19153 0.1722,-2.61663 0.1722,10.95963 0.1722,-9.37065 0.1723,10.90225 0.1722,-9.5952 0.1722,4.383 0.1722,-13.64109 0.1722,10.12169 0.1723,1.8499 0.1722,3.2201 0.1722,-5.4328 0.3445,3.6193 0.1722,5.7942 0.3444,-8.6645 0.1722,1.2427 0.1723,-5.11444 0.1722,7.25594 0.1722,-3.3251 0.1722,6.0143 0.3445,-6.8363 0.1722,2.0172 0.1722,-1.6209 0.1722,5.8547 0.3445,-6.551 0.1722,5.923 0.1722,-1.6129 0.1723,-7.57174 0.3444,3.38954 0.1722,0.4239 0.1722,-2.56449 0.1723,6.58939 0.1722,-1.2234 0.1722,6.7825 0.3445,-8.9506 0.1722,1.0955 0.1722,-1.0827 0.1722,2.0777 0.1722,-0.9288 0.1723,3.9235 0.1722,-0.9088 0.1722,-6.76419 0.1722,0.58824 0.3445,6.46955 0.1722,0.2685 0.1722,-4.7314 0.1722,-0.8307 0.1723,6.6102 0.1722,-2.4945 0.1722,-0.4241 0.1722,-3.0517 0.1723,1.0639 0.1722,-0.5403 0.3444,-3.43307 0.3445,7.97317 0.1722,-2.6081 0.1722,1.509 0.1722,-5.2483 0.1723,-0.49817 0.1722,3.09557 0.3444,-1.6854 0.1722,0.9246 0.1723,-1.4796 0.1722,2.2 0.1722,-3.94094 0.3445,9.47384 0.1722,-7.7622 0.1722,4.8594 0.1722,-2.6158 0.1722,-4.39637 0.1723,5.61627 0.1722,-3.0486 0.1722,5.4046 0.1722,-7.36597 0.1723,3.94077 0.1722,0.3235 0.1722,3.7684 0.3444,-5.0549 0.1723,9.6312 0.1722,-1.4594 0.1722,-12.59097 0.3445,11.02677 0.1722,-3.6731 0.1722,1.9071 0.5167,-5.4091 0.1722,4.3529 0.1722,1.5296 0.1722,-2.4215 0.1723,-5.53601 0.1722,1.08911 0.1722,-0.1399 0.1722,0.682 0.1722,4.9646 0.5167,-6.81247 0.1722,6.12097 0.1723,-4.3474 0.1722,4.2592 0.1722,0.3194 0.1722,-0.467 0.1722,-5.23132 0.1723,3.83692 0.1722,7.4646 0.1722,-9.7084 0.1722,5.4225 0.1723,1.3001 0.3444,-7.3339 0.1722,6.3572 0.1722,0.7524 0.1723,-3.8256 0.1722,0.6861 0.1722,-2.1264 0.1722,-5.55296 0.1723,12.07536 0.1722,-4.5914 0.3444,1.4035 0.1722,-4.7105 0.1723,2.6558 0.1722,0.1546 0.1722,-3.8414 0.3445,5.6117 0.1722,-1.988 0.1722,3.9243 0.1722,-7.4747 0.3445,3.0104 0.1722,-6.02602 0.3444,6.62312 0.1723,-2.1055 0.1722,2.0787 0.1722,3.817 0.1722,-8.77567 0.1722,7.12957 0.1723,0.2114 0.1722,-2.2128 0.1722,-8.70488 0.3445,14.48458 0.1722,-8.4282 0.1722,3.8074 0.3444,-6.98165 0.1723,4.22465 0.1722,-1.4115 0.1722,0.3345 0.1722,7.0162 0.1723,-4.875 0.1722,-1.6619 0.1722,-0.3291 0.1722,0.8742 0.1722,7.6575 0.1723,-5.4101 0.1722,1.151 0.1722,-4.9607 0.1722,-0.7434 0.1723,1.133 0.1722,4.9379 0.1722,-5.6749 0.1722,-1.8471 0.1722,8.0123 0.1723,-7.69799 0.1722,4.18629 0.1722,-2.8 0.5167,6.2504 0.1722,-2.9889 0.1722,-8.46634 0.1722,8.56734 0.1723,0.3328 0.1722,-3.8627 0.1722,5.8436 0.1722,-6.25353 0.3445,4.23173 0.1722,1.0448 0.1722,-2.6053 0.1722,4.9464 0.1723,-7.2626 0.1722,5.0244 0.1722,-1.5261 0.1722,0.2825 0.1723,-0.4318 0.1722,1.6562 0.1722,0.1475 0.1722,-3.0865 0.1722,-0.2005 0.1723,2.0617 0.1722,0.3002 0.1722,0.7085 0.1722,-3.0173 0.1723,1.6929 0.1722,-0.7144 0.1722,2.4487 0.1722,-5.4684 0.1722,7.1982 0.3445,-11.06763 0.1722,12.73453 0.1722,-3.6214 0.1723,0.6858 0.1722,-0.4333 0.1722,-1.2635 0.3444,-4.3105 0.1723,4.6105 0.1722,-2.6892 0.1722,0.884 0.1722,2.1385 0.1723,-6.78515 0.1722,2.77615 0.1722,6.5465 0.1722,-5.8214 0.1722,-2.04848 0.1723,4.59678 0.1722,-4.2011 0.1721,4.2675 0.172,-0.128 0.173,1.1321 0.344,-2.6197 0.172,3.3837 0.172,-9.33828 0.345,7.18668 0.172,-0.9601 0.172,-4.11144 0.173,1.68024 0.172,7.0062 0.172,-7.7293 0.344,7.9675 0.173,-11.99135 0.172,4.63845 0.172,-1.62552 0.172,3.34452 0.173,-1.1412 0.172,6.883 0.172,-10.96694 0.344,6.15644 0.173,1.7581 0.172,-2.7647 0.172,1.64 0.172,-0.1332 0.173,-2.9598 0.172,0.0217 0.172,6.9357 0.172,-7.63149 0.172,6.11699 0.173,-2.4792 0.172,0.5475 0.344,-2.3538 0.173,-0.5095 0.172,4.6489 0.172,-8.60391 0.172,4.28271 0.172,0.0449 0.173,0.5565 0.172,-2.43896 0.344,4.61926 0.173,-0.3872 0.172,2.7755 0.344,-8.94381 0.172,8.00681 0.173,-8.45911 0.344,10.19921 0.172,-9.10868 0.345,8.10598 0.172,-7.70061 0.172,-1.67585 0.345,10.69406 0.172,-5.0458 0.172,-0.6377 0.172,3.4584 0.173,0.9947 0.172,-6.1826 0.172,6.9356 0.344,-9.20329 0.173,5.26229 0.172,1.1973 0.172,-4.79013 0.345,8.43093 0.344,-8.37103 0.172,1.67233 0.345,-2.55508 0.172,-4.19382 0.172,5.6028 0.172,1.8404 0.173,5.7446 0.172,-10.80084 0.172,5.63364 0.172,1.6002 0.172,-1.0986 0.173,5.5524 0.172,-7.0131 0.172,-1.4991 0.172,0.1104 0.173,2.7858 0.172,-1.9982 0.172,4.6645 0.172,-5.6761 0.345,3.3831 0.344,2.8208 0.172,-3.0526 0.173,2.0698 0.172,-5.0669 0.172,5.3833 0.172,1.621 0.172,-5.3505 0.173,7.7506 0.172,-8.149 0.172,0.2417 0.172,3.1514 0.173,-2.9976 0.344,6.3966 0.344,-8.4419 0.173,2.5378 0.172,4.866 0.172,-8.23996 0.172,7.38626 0.345,-8.36165 0.172,3.43295 0.172,-2.67503 0.172,8.30633 0.345,-4.8897 0.172,0.6463 0.345,-1.3455 0.172,7.0136 0.172,-0.8609 0.172,-1.7236 0.172,-4.3705 0.173,-0.8637 0.172,0.1341 0.172,-0.881 0.172,-1.90592 0.173,9.52952 0.344,-8.03525 0.172,9.79145 0.172,-13.42262 0.173,6.87812 0.172,-2.5721 0.172,10.648 0.172,-6.6575 0.173,1.1395 0.172,-2.1063 0.344,2.3464 0.172,-1.7096 0.173,5.9216 0.172,-5.7323 0.172,0.8188 0.172,-1.623 0.173,-4.33136 0.172,5.94826 0.172,1.0607 0.172,-8.55133 0.172,8.56773 0.173,-7.22868 0.172,8.50478 0.172,-10.40847 0.172,10.30267 0.345,-3.9602 0.344,3.246 0.172,3.7069 0.345,-10.66679 0.344,-0.38404 0.173,4.21773 0.172,-0.9629 0.172,-2.3186 0.172,5.619 0.172,-1.8326 0.173,-0.4923 0.172,-6.90133 0.172,5.87723 0.345,-7.34629 0.344,12.04769 0.172,-6.4539 0.172,0.1007 0.173,-0.7861 0.172,7.4834 0.172,-5.2469 0.172,-0.0548 0.173,0.9004 0.172,5.3076 0.172,-6.9953 0.172,5.5666 0.345,-4.8973 0.172,5.7105 0.172,-3.6023 0.172,1.3445 0.173,-7.60594 0.172,6.35934 0.172,0.086 0.172,-2.7732 0.172,-0.4063 0.517,4.9991 0.345,-2.4951 0.172,0.5432 0.172,1.9516 0.172,-3.9303 0.172,5.5322 0.173,-6.183 0.172,4.3624 0.172,-3.2454 0.345,-2.1035 0.172,7.8737 0.344,-4.6612 0.172,0.1677 0.173,2.4413 0.172,-1.4397 0.172,-4.5039 0.172,1.4999 0.173,7.887 0.172,-7.4851 0.172,0.702 0.172,1.67 0.172,-0.0024 0.173,-3.1405 0.172,-0.2037 0.172,-5.69752 0.172,8.03412 0.173,-2.8451 0.172,2.5235 0.172,5.0245 0.172,-6.0116 0.172,-1.5167 0.173,1.8797 0.172,-5.52589 0.172,8.58989 0.172,-4.7408 0.173,1.1512 0.172,4.3394 0.172,-3.3303 0.172,-0.0472 0.172,2.6518 0.173,-4.4381 0.172,0.23 0.172,8.2494 0.517,-10.6452 0.172,5.2364 0.172,-3.881 0.172,0.8915 0.173,3.7858 0.172,-7.08086 0.172,5.39776 0.172,-1.8695 0.173,1.7097 0.172,-3.58122 0.172,4.08442 0.344,-4.29014 0.173,5.29754 0.172,-0.3017 0.172,2.8861 0.345,-4.0753 0.172,3.7153 0.172,-4.6539 0.172,9.2528 0.172,-8.0043 0.345,2.7773 0.172,-5.2205 0.172,-0.7226 0.173,3.5518 0.172,-3.2902 0.172,3.2492 0.172,-1.5126 0.172,2.5286 0.173,-1.8638 0.172,-3.0913 0.172,0.613 0.172,2.974 0.173,5.2987 0.172,-5.7228 0.172,-1.3351 0.172,-3.63181 0.172,3.16851 0.173,-2.56938 0.172,8.10078 0.172,-0.7256 0.172,2.9684 0.173,-8.5872 0.172,1.7638 0.172,-4.22756 0.172,10.70796 0.172,-3.7413 0.345,-3.2605 0.172,0.5889 0.172,-4.88116 0.173,6.04496 0.172,-3.5177 0.172,7.8678 0.172,-0.6815 0.172,-6.5397 0.173,-1.73148 0.172,4.49428 0.172,-3.2462 0.172,1.7028 0.173,-0.2233 0.172,5.9739 0.172,-4.069 0.172,7.8443 0.345,-16.79305 0.172,9.55785 0.172,2.6399 0.172,-8.79962 0.173,0.945 0.172,5.47992 0.172,-8.30973 0.689,14.68923 0.172,-4.7667 0.172,-0.1752 0.345,-6.95079 0.172,4.82199 0.172,-0.2893 0.172,1.8014 0.173,-2.7663 0.172,0.462 0.344,2.4389 0.173,-5.4844 0.172,5.6458 0.172,-4.3452 0.172,3.9805 0.345,-3.7645 0.172,4.4999 0.172,-4.5938 0.345,6.9294 0.172,3.4876 0.172,-3.435 0.172,-7.9102 0.172,5.5665 0.173,-0.8235 0.172,0.5512 0.172,-5.2742 0.172,0.4301 0.345,2.7033 0.172,0.8186 0.172,1.6063 0.172,-1.9865 0.173,-4.55381 0.172,2.13361 0.172,6.6768 0.172,-5.6084 0.173,1.5169 0.172,6.2234 0.172,-2.3397 0.172,-4.4569 0.172,0.3624 0.173,1.5678 0.172,-3.0172 0.172,-0.4879 0.172,4.5194 0.173,-3.705 0.172,1.438 0.172,3.9925 0.172,-3.4786 0.172,5.2138 0.173,-1.42 0.344,-6.6549 0.172,6.9699 0.173,-7.1576 0.172,7.0073 0.172,-1.7663 0.172,1.7216 0.172,-2.5333 0.173,-4.3872 0.172,7.3971 0.172,-6.4924 0.345,3.1639 0.172,-0.7182 0.172,-2.5539 0.172,2.4509 0.172,-0.2981 0.173,1.0427 0.172,-1.4785 0.172,5.7288 0.172,-6.3135 0.173,-1.1596 0.172,-2.0204 0.172,-3.69192 0.344,9.27952 0.173,-9.39641 0.344,10.79381 0.172,-6.7402 0.173,7.7484 0.344,-3.8872 0.172,-3.4455 0.172,1.683 0.173,-2.3172 0.172,4.1751 0.172,-2.7879 0.172,5.4097 0.345,-3.7013 0.172,-0.3079 0.344,5.1374 0.173,-5.1465 0.172,2.4918 0.172,-5.0107 0.172,4.9402 0.173,-0.4355 0.172,-0.8466 0.172,2.7336 0.172,-2.8538 0.172,-5.39563 0.345,10.66303 0.172,-16.34708 0.172,12.17338 0.345,-5.7712 0.172,4.7313 0.172,-3.5542 0.172,-0.2112 0.173,4.2552 0.172,-4.777 0.172,0.3025 0.345,4.8662 0.172,-5.0848 0.172,0.4578 0.172,1.0156 0.172,-1.6338 0.173,6.4568 0.172,-7.81039 0.172,8.82029 0.172,-1.0069 0.173,-3.0404 0.172,0.791 0.172,-7.84172 0.172,7.05492 0.172,-2.0958 0.173,9.0289 0.172,-9.1142 0.344,4.1609 0.173,-4.415 0.172,4.8966 0.172,-5.0445 0.172,6.9061 0.345,-6.916 0.172,1.9049 0.172,0.5506 0.172,4.7837 0.517,-9.97823 0.172,9.67313 0.345,-7.0248 0.172,3.2307 0.172,-1.4312 0.172,6.4233 0.173,-4.3311 0.172,0.7447 0.172,-2.7034 0.172,5.8543 0.345,-2.3618 0.172,-6.93229 0.172,1.30449 0.172,8.594 0.173,-5.5912 0.172,0.1151 0.172,2.1183 0.172,-3.8609 0.345,3.5507 0.172,-3.2502 0.172,4.2881 0.172,1.2499 0.173,-9.63873 0.172,7.78713 0.172,-3.8133 0.172,-0.3546 0.172,-2.79108 0.173,3.04828 0.172,5.7612 0.172,-9.7225 0.172,10.8786 0.173,-3.9761 0.172,3.7239 0.172,-6.842 0.172,3.5532 0.172,-1.4467 0.173,-2.6664 0.172,3.8852 0.172,-5.60903 0.172,7.26323 0.173,-3.7367 0.172,1.5279 0.172,-0.678 0.172,-5.71649 0.172,6.80289 0.173,-3.422 0.172,3.5825 0.172,-8.75566 0.345,14.06596 0.172,-3.6761 0.172,0.309 0.344,-10.51385 0.345,7.60895 0.172,-1.064 0.172,-3.57613 0.173,8.66003 0.172,-6.2045 0.172,0.915 0.172,1.5337 0.172,3.9847 0.173,-4.4428 0.172,-10.82931 0.172,13.47911 0.172,-2.1324 0.173,-4.0464 0.172,1.7653 0.172,-0.1848 0.172,-2.1558 0.172,4.9658 0.173,-1.6365 0.344,1.7028 0.172,-6.80908 0.173,-1.68412 0.172,5.4967 0.172,-5.24382 0.172,7.91842 0.172,2.6975 0.345,-1.6028 0.172,-5.4997 0.172,-0.4247 0.345,3.2634 0.172,-0.439 0.172,1.2613 0.172,-8.48757 0.345,11.73517 0.172,-2.4732 0.172,-5.02459 0.173,7.04959 0.172,-10.83061 0.344,9.72171 0.172,-2.2536 0.173,0.2937 0.172,3.9294 0.172,-1.2076 0.172,-5.1843 0.345,5.2958 0.172,1.1402 0.172,-0.3214 0.172,-9.41554 0.173,6.12554 0.172,-0.6047 0.172,-1.3364 0.172,0.4901 0.173,1.3834 0.172,-5.2196 0.172,0.72753 0.172,3.87667 0.172,-1.5128 0.173,-4.22739 0.172,0.33194 0.344,11.02255 0.173,-10.13782 0.172,3.33692 0.172,0.9002 0.172,-0.4658 0.172,0.054 0.173,-4.19378 0.344,5.34978 0.172,1.1156 0.173,1.8831 0.172,-9.17045 0.172,0.50015 0.172,0.92716 0.517,6.38344 0.172,-7.37964 0.172,4.08164 0.173,-1.0136 0.172,6.2359 0.172,-7.86641 0.172,2.14641 0.172,-4.29839 0.173,8.24019 0.172,-2.5138 0.172,1.905 0.172,-0.1317 0.173,-8.84237 0.172,9.28367 0.172,-1.0546 0.172,-4.2796 0.172,2.2269 0.173,-3.03287 0.172,4.94857 0.172,1.469 0.172,-3.6693 0.345,2.1155 0.172,-5.66965 0.172,-0.04701 0.172,1.40301 0.173,0.40745 0.172,-1.15211 0.172,5.29861 0.172,-7.69619 0.173,3.57709 0.172,-1.67294 0.172,-0.48291 0.172,0.33905 0.345,6.6229 0.172,-3.1913 0.344,-1.5906 0.173,3.9446 0.172,-5.77656 0.172,8.86096 0.172,-8.94444 0.172,8.64454 0.689,-5.5625 0.173,0.7579 0.172,3.4472 0.172,-3.9847 0.172,-0.6198 0.172,1.0939 0.173,1.9161 0.172,-6.04232 0.344,4.33342 0.173,-2.1645 0.172,1.2996 0.172,-3.40771 0.172,7.26941 0.172,-2.9967 0.173,5.5621 0.172,-3.0489 0.172,-0.3905 0.172,1.7523 0.173,-9.93686 0.172,11.39606 0.172,-6.8679 0.172,1.1289 0.172,4.9654 0.173,-2.3981 0.172,1.266 0.172,-1.2793 0.172,-3.8447 0.173,0.8346 0.172,2.9762 0.172,-1.3945 0.172,7.1518 0.172,-8.4635 0.345,8.8368 0.172,-10.3476 0.172,1.6561 0.173,-0.0595 0.344,3.161 0.172,1.6318 0.345,-4.4542 0.172,1.5027 0.172,0.3026 0.172,3.5239 0.173,-0.9529 0.172,-6.6391 0.172,6.6391 0.172,-6.6391 0,0"
           style="fill:none;stroke:#009900;stroke-width:1.5;stroke-linecap:square;stroke-linejoin:round"
           id="path14"
           inkscape:connector-curvature="0" />
      </g>
      <g
         id="matplotlib.axis_1"
         style="stroke-linecap:butt;stroke-linejoin:round" />
      <g
         id="matplotlib.axis_2"
         style="stroke-linecap:butt;stroke-linejoin:round" />
    </g>
  </g>
  <defs
     id="defs18">
    <clipPath
       id="pd52b26d716">
      <rect
         height="23.040001"
         width="223.2"
         x="0"
         y="-3.5527137e-15"
         id="rect21"
         style="stroke-linecap:butt;stroke-linejoin:round" />
    </clipPath>
  </defs>
</svg>
